<svg version="1.1" id="Layer_1" xmlns="http://www.w3.org/2000/svg" xmlns:xlink="http://www.w3.org/1999/xlink" x="0px" y="0px"
	 viewBox="0 0 490 490" style="enable-background:new 0 0 490 490;" xml:space="preserve">
<g>
	<g>
		<g>
			<path d="M413.437,367.5h-22.969V7.656c0-4.228-3.428-7.656-7.656-7.656H76.562c-4.228,0-7.657,3.428-7.657,7.656v459.375
				C68.906,479.696,79.21,490,91.874,490h306.251c12.664,0,22.969-10.304,22.969-22.969v-91.875
				C421.094,370.928,417.666,367.5,413.437,367.5z M91.874,474.688c-4.221,0-7.656-3.435-7.656-7.657V15.312h290.937v451.719
				c0,2.683,0.462,5.261,1.313,7.657H91.874z M405.781,467.031c0,4.221-3.434,7.657-7.656,7.657c-4.222,0-7.656-3.435-7.656-7.657
				v-84.219h15.312V467.031z"/>
			<path d="M329.219,421.094h-91.875c-4.228,0-7.656,3.428-7.656,7.656c0,4.228,3.428,7.656,7.656,7.656h91.875
				c4.228,0,7.656-3.428,7.656-7.656C336.875,424.522,333.447,421.094,329.219,421.094z"/>
			<path d="M160.781,306.25c-21.108,0-38.281,17.173-38.281,38.281c0,8.6,2.852,16.545,7.657,22.943
				c0,0.009-0.001,0.017-0.001,0.026v76.562c0,3.097,1.865,5.888,4.726,7.073c0.947,0.393,1.942,0.583,2.928,0.583
				c1.992,0,3.951-0.778,5.415-2.243l17.555-17.555l17.555,17.555c2.19,2.189,5.482,2.844,8.344,1.66
				c2.861-1.185,4.726-3.977,4.726-7.073V367.5c0-0.008-0.001-0.017-0.001-0.025c4.806-6.398,7.658-14.344,7.658-22.944
				C199.062,323.423,181.889,306.25,160.781,306.25z M176.095,425.578l-9.9-9.898c-2.99-2.99-7.838-2.99-10.827,0l-9.899,9.899
				v-45.973c4.693,2.057,9.87,3.206,15.313,3.206c5.443,0,10.62-1.149,15.313-3.206V425.578z M160.781,367.5
				c-12.665,0-22.969-10.304-22.969-22.969c0-12.665,10.304-22.969,22.969-22.969s22.969,10.304,22.969,22.969
				C183.749,357.196,173.445,367.5,160.781,367.5z"/>
			<path d="M130.156,68.906h99.531c4.228,0,7.656-3.428,7.656-7.656c0-4.228-3.428-7.656-7.656-7.656h-99.531
				c-4.228,0-7.657,3.428-7.657,7.656C122.499,65.478,125.927,68.906,130.156,68.906z"/>
			<path d="M122.499,107.187c0,4.228,3.428,7.656,7.656,7.656h199.062c4.228,0,7.656-3.428,7.656-7.656
				c0.001-4.228-3.427-7.656-7.655-7.656H130.156C125.928,99.531,122.499,102.959,122.499,107.187z"/>
			<path d="M329.219,145.469H130.156c-4.228,0-7.656,3.428-7.656,7.656s3.428,7.656,7.656,7.656h199.062
				c4.228,0,7.656-3.428,7.656-7.656S333.447,145.469,329.219,145.469z"/>
			<path d="M329.219,191.406H130.156c-4.228,0-7.656,3.428-7.656,7.656c0,4.228,3.428,7.656,7.656,7.656h199.062
				c4.228,0,7.656-3.428,7.656-7.656C336.875,194.834,333.447,191.406,329.219,191.406z"/>
			<path d="M130.156,237.344c-4.228,0-7.656,3.428-7.656,7.656s3.428,7.656,7.656,7.656h199.062c4.228,0,7.656-3.428,7.656-7.656
				s-3.427-7.656-7.655-7.656H130.156z"/>
			<path d="M336.874,290.937c0-4.228-3.427-7.656-7.655-7.656H222.031c-4.228,0-7.656,3.428-7.656,7.656
				c0,4.228,3.428,7.656,7.656,7.656h107.187C333.446,298.593,336.874,295.165,336.874,290.937z"/>
		</g>
	</g>
</g>
<g>
</g>
<g>
</g>
<g>
</g>
<g>
</g>
<g>
</g>
<g>
</g>
<g>
</g>
<g>
</g>
<g>
</g>
<g>
</g>
<g>
</g>
<g>
</g>
<g>
</g>
<g>
</g>
<g>
</g>
</svg>
