<svg version="1.1" xmlns="http://www.w3.org/2000/svg" viewBox="0 0 512 512" xmlns:xlink="http://www.w3.org/1999/xlink" enable-background="new 0 0 512 512">
  <g>
    <g>
      <g>
        <path d="m473.6,256.6c0-99.3-67.1-185.9-163.3-210.6-9.2-2.4-18.6,3.2-20.9,12.4-2.4,9.2 3.2,18.6 12.4,20.9 80.9,20.7 137.4,93.7 137.4,177.3 0,73.7-43.9,139-109.6,167.7l15.9-37c3.7-8.7-0.3-18.8-9-22.6-8.7-3.7-18.8,0.3-22.6,9l-31,72.2c-3.7,8.7 0.3,18.8 9,22.6l72.2,31c10.8,3.8 19.8-2.5 22.6-9 3.7-8.7-0.3-18.8-9-22.6l-31.4-13.5c76.5-34.6 127.3-111.4 127.3-197.8z"/>
        <path d="m210.4,433.9c-80.9-20.8-137.4-93.7-137.4-177.3 0-72.7 42.7-137.2 106.9-166.5l-14.9,34.6c-3.7,8.7 0.1,19.2 9,22.6 10.4,3.9 19.2-0.8 22.6-9l31-72.3c3-7 2.9-17.5-9-22.6l-72.2-31c-8.7-3.7-18.8,0.3-22.6,9-3.7,8.7 0.3,18.8 9,22.6l33.6,14.4c-76.8,34.7-127.8,111.6-127.8,198.2 7.10543e-15,99.3 67.2,185.8 163.3,210.6 11.6,3 18.9-4.6 20.9-12.4 2.3-9.2-3.2-18.5-12.4-20.9z"/>
        <path d="m296.6,321.4c8.8-9.2 13.2-20.8 13.2-34.6 0-6.3-1.1-12.1-3.2-17.5-2.1-5.4-5.1-10-9-14-3.9-3.9-9-7.2-15.2-10-3.3-1.4-9.9-3.4-20-5.9v-57.4c6.5,1.3 11.6,4.1 15.4,8.3 3.7,4.2 6.2,10.2 7.4,18l20.6-3.1c-1.8-12.6-7-22.6-15.7-29.8-6.8-5.7-16-9.1-27.6-10.2v-9.5h-11.8v9.5c-13.2,1.3-23.2,5-29.9,10.9-10.1,8.8-15.1,20.3-15.1,34.5 0,8 1.7,15.1 5.2,21.4 3.4,6.3 8.3,11.2 14.7,14.7 8.6,4.8 17,8 25.2,9.5v63.5c-7.8-0.8-14.6-4.8-20.2-11.9-3.9-5-6.7-12.9-8.2-23.6l-20.1,3.8c0.7,10.3 3.4,19.1 7.9,26.3 4.5,7.2 9.9,12.4 16.2,15.6 6.2,3.2 14.4,5.4 24.3,6.7v19.9h11.8v-20.2c14-0.7 25.4-5.7 34.1-14.9zm-45.8-84.5c-9.1-2.7-15.5-6.4-19.3-11-3.8-4.6-5.7-10.3-5.7-17.1 0-6.9 2.2-12.8 6.7-17.8 4.5-5 10.6-8.1 18.3-9.3v55.2zm30.9,72.6c-5.1,5.8-11.5,9.1-19.2,10.1v-60.7c10.7,3.5 17.9,7.4 21.5,11.8 3.6,4.4 5.4,10.2 5.4,17.5-0.1,8.4-2.6,15.6-7.7,21.3z"/>
      </g>
    </g>
  </g>
</svg>
