<svg version="1.1" id="Capa_1" xmlns="http://www.w3.org/2000/svg" xmlns:xlink="http://www.w3.org/1999/xlink" x="0px" y="0px"
	 width="558.833px" height="558.833px" viewBox="0 0 558.833 558.833" style="enable-background:new 0 0 558.833 558.833;"
	 xml:space="preserve">
<g>
	<g>
		<path d="M140.445,61.611v437.073c0,1.979,1.606,3.586,3.586,3.586h267.826c1.98,0,3.586-1.606,3.586-3.586V61.611
			c0-1.979-1.605-3.586-3.586-3.586H144.031C142.051,58.025,140.445,59.632,140.445,61.611z M147.617,65.197h260.654v429.901
			H147.617V65.197z"/>
		<path d="M298.55,506.134h-38.623c-6.847,0-12.421,5.575-12.421,12.412v7.727c0,6.847,5.574,12.412,12.421,12.412h38.623
			c6.848,0,12.422-5.575,12.422-12.412v-7.727C310.962,511.709,305.398,506.134,298.55,506.134z M303.791,526.272
			c0,2.888-2.352,5.24-5.25,5.24h-38.622c-2.897,0-5.25-2.353-5.25-5.24v-7.727c0-2.888,2.353-5.24,5.25-5.24h38.622
			c2.898,0,5.25,2.353,5.25,5.24V526.272z"/>
		<path d="M246.684,35.955h69.156c3.1,0,5.613-2.515,5.613-5.613c0-3.088-2.514-5.604-5.613-5.604h-69.156
			c-3.098,0-5.612,2.515-5.612,5.604C241.071,33.431,243.586,35.955,246.684,35.955z M246.684,27.119h69.156
			c1.779,0,3.223,1.444,3.223,3.213c0,1.778-1.443,3.222-3.223,3.222h-69.156c-1.778,0-3.222-1.444-3.222-3.222
			C243.462,28.563,244.905,27.119,246.684,27.119z"/>
		<circle cx="251.093" cy="30.342" r="1.606"/>
		<circle cx="255.787" cy="30.342" r="1.606"/>
		<circle cx="260.474" cy="30.342" r="1.606"/>
		<circle cx="265.159" cy="30.342" r="1.606"/>
		<circle cx="269.863" cy="30.342" r="1.606"/>
		<circle cx="274.549" cy="30.342" r="1.606"/>
		<circle cx="279.234" cy="30.342" r="1.606"/>
		<circle cx="283.921" cy="30.342" r="1.606"/>
		<circle cx="288.615" cy="30.342" r="1.606"/>
		<circle cx="293.32" cy="30.342" r="1.606"/>
		<circle cx="298.005" cy="30.342" r="1.606"/>
		<circle cx="302.691" cy="30.342" r="1.606"/>
		<circle cx="307.376" cy="30.342" r="1.606"/>
		<circle cx="312.082" cy="30.342" r="1.606"/>
		<circle cx="375.406" cy="32.044" r="3.901"/>
		<path d="M205.776,516.27h-18.58c-0.583,0-1.042,0.469-1.042,1.043v9.601c0,0.573,0.469,1.042,1.042,1.042s1.023-0.469,1.023-1.042
			v-8.568h16.524v8.568c0,0.573,0.478,1.042,1.033,1.042c0.574,0,1.042-0.469,1.042-1.042v-9.601
			C206.828,516.738,206.35,516.27,205.776,516.27z"/>
		<path d="M200.774,520.296h-8.578c-0.574,0-1.033,0.469-1.033,1.042c0,0.574,0.469,1.033,1.033,1.033h8.578
			c0.583,0,1.042-0.459,1.042-1.033C201.817,520.765,201.358,520.296,200.774,520.296z"/>
		<path d="M200.774,524.475h-8.578c-0.574,0-1.033,0.479-1.033,1.042c0,0.574,0.469,1.043,1.033,1.043h8.578
			c0.583,0,1.042-0.469,1.042-1.043C201.817,524.953,201.358,524.475,200.774,524.475z"/>
		<path d="M363.748,518.45h-7.152l0.201-0.507l-3.643,1.54l3.643,1.539l-0.201-0.497h7.152c2.162,0,3.922,1.702,3.922,3.815
			c0,2.104-1.76,3.806-3.922,3.806h-7.018c-0.584,0-1.023,0.469-1.023,1.033c0,0.573,0.449,1.042,1.023,1.042h7.018
			c3.309,0,5.996-2.648,5.996-5.891C369.744,521.09,367.056,518.45,363.748,518.45z"/>
		<path d="M116.261,42.486v473.86c0,23.428,19.058,42.486,42.486,42.486h241.338c23.428,0,42.486-19.059,42.486-42.486V42.486
			C442.572,19.058,423.513,0,400.085,0H158.748C135.319-0.009,116.261,19.049,116.261,42.486z M428.238,42.486v473.86
			c0,15.52-12.623,28.143-28.143,28.143H158.748c-15.52,0-28.143-12.623-28.143-28.143V42.486c0-15.52,12.623-28.143,28.143-28.143
			h241.338C415.615,14.334,428.238,26.966,428.238,42.486z"/>
	</g>
</g>
<g>
</g>
<g>
</g>
<g>
</g>
<g>
</g>
<g>
</g>
<g>
</g>
<g>
</g>
<g>
</g>
<g>
</g>
<g>
</g>
<g>
</g>
<g>
</g>
<g>
</g>
<g>
</g>
<g>
</g>
</svg>
