<svg version="1.1" id="Layer_1" xmlns="http://www.w3.org/2000/svg" xmlns:xlink="http://www.w3.org/1999/xlink" x="0px" y="0px"
	 viewBox="0 0 511.995 511.995" style="enable-background:new 0 0 511.995 511.995;" xml:space="preserve">
<g>
	<g>
		<path d="M355.51,303.583l-60.297-60.297c-2.381-2.381-6.451-1.195-7.185,2.091l-15.778,70.989c-0.631,2.842,0.23,5.82,2.295,7.885
			c1.613,1.613,3.797,2.5,6.033,2.5c0.614,0,1.237-0.068,1.852-0.205l70.989-15.778C356.705,310.034,357.891,305.963,355.51,303.583
			z"/>
	</g>
</g>
<g>
	<g>
		<path d="M509.503,160.368l-68.267-68.267c-3.311-3.311-8.678-3.337-12.023-0.043l-29.594,29.15
			c-1.69,1.664-1.698,4.378-0.026,6.059l74.129,74.129c1.647,1.647,4.318,1.673,5.99,0.043l29.705-28.919
			c1.63-1.596,2.56-3.772,2.577-6.05C512.012,164.191,511.116,161.98,509.503,160.368z"/>
	</g>
</g>
<g>
	<g>
		<path d="M475.37,322.501l-59.196-59.196l45.201-44.015c1.707-1.655,1.724-4.395,0.043-6.076l-74.027-74.027
			c-1.655-1.655-4.343-1.664-6.007-0.026l-40.713,40.098l-35.977-35.977c-1.596-1.587-3.763-2.483-6.025-2.483H153.603
			c-4.71,0-8.533,3.823-8.533,8.533v38.067c-16.06,2.714-26.146,3.345-34.287-3.746c-7.219-6.281-9.216-13.867-12.527-26.436
			c-1.877-7.117-4.002-15.181-7.586-24.764C80.865,106.241,44.351,62.2,14.57,32.368c-3.328-3.337-8.721-3.345-12.066-0.009
			c-3.336,3.328-3.336,8.73-0.008,12.066c34.313,34.364,64.674,73.907,72.192,94.012c3.285,8.781,5.291,16.401,7.066,23.134
			c3.567,13.534,6.647,25.225,17.818,34.953c8.636,7.518,18.159,9.856,28.262,9.856c5.581,0,11.349-0.734,17.237-1.69v98.244
			c0,2.185,0.836,4.292,2.347,5.879L309.55,479.48c1.673,1.766,3.925,2.654,6.187,2.654c2.108,0,4.215-0.768,5.862-2.33
			l153.6-145.067c1.673-1.587,2.645-3.78,2.671-6.084C477.895,326.349,476.999,324.131,475.37,322.501z M316.061,461.552
			L162.137,299.529v-97.741c5.385-0.862,10.906-1.468,16.555-1.758c-1.775,7.356-1.519,15.479,8.388,25.626
			c5.043,5.171,11.844,8.815,19.063,8.687c17.655-0.299,31.351-17.135,26.249-35.652c-2.355-8.559-9.122-15.625-17.545-18.44
			c-8.943-2.995-17.417-1.374-24.064,2.859c-10.206-0.631-19.789,0.102-28.646,1.434v-26.675h133l33.382,33.382l-27.767,27.349
			c-1.69,1.664-1.698,4.378-0.026,6.059l73.557,73.557c1.647,1.647,4.318,1.672,5.99,0.043l23.671-23.049l53.146,53.146
			L316.061,461.552z M194.905,206.533c0-5.931,4.821-10.752,10.752-10.752c5.922,0,10.744,4.821,10.744,10.752
			s-4.821,10.752-10.744,10.752C199.726,217.285,194.905,212.464,194.905,206.533z"/>
	</g>
</g>
<g>
</g>
<g>
</g>
<g>
</g>
<g>
</g>
<g>
</g>
<g>
</g>
<g>
</g>
<g>
</g>
<g>
</g>
<g>
</g>
<g>
</g>
<g>
</g>
<g>
</g>
<g>
</g>
<g>
</g>
</svg>